<svg xmlns="http://www.w3.org/2000/svg" xmlns:xlink="http://www.w3.org/1999/xlink" width="500" zoomAndPan="magnify" viewBox="0 0 375 374.999991" height="500" preserveAspectRatio="xMidYMid meet" version="1.0"><defs><clipPath id="bee90cc3f6"><path d="M 72 238 L 313 238 L 313 272.253906 L 72 272.253906 Z M 72 238 " clip-rule="nonzero"/></clipPath><clipPath id="e1dfc38570"><path d="M 18.46875 88.503906 L 365.71875 88.503906 L 365.71875 250 L 18.46875 250 Z M 18.46875 88.503906 " clip-rule="nonzero"/></clipPath></defs><g clip-path="url(#bee90cc3f6)"><path fill="#e4ca5b" d="M 192.117188 238.421875 C 192.109375 238.421875 192.101562 238.421875 192.09375 238.421875 C 192.085938 238.421875 192.078125 238.421875 192.070312 238.421875 C 192.03125 238.421875 191.996094 238.421875 191.957031 238.421875 C 129.308594 238.421875 86.21875 247.34375 72.046875 255.339844 C 86.238281 263.292969 129.277344 272.1875 191.871094 272.261719 L 192.3125 272.261719 C 254.910156 272.1875 297.949219 263.292969 312.140625 255.339844 C 297.96875 247.34375 254.878906 238.421875 192.230469 238.421875 C 192.191406 238.421875 192.15625 238.421875 192.117188 238.421875 " fill-opacity="1" fill-rule="nonzero"/></g><g clip-path="url(#e1dfc38570)"><path fill="#e4ca5b" d="M 348.4375 158.589844 C 345.296875 161.230469 345.757812 163.375 344.886719 165.761719 C 344.40625 167.078125 343.867188 168.789062 341.511719 170.859375 C 341.511719 170.859375 311.175781 202.304688 290.863281 195.574219 C 260.757812 185.597656 277.277344 146.824219 277.277344 146.824219 L 280.378906 140.019531 C 281.925781 136.632812 286.539062 135.230469 288.40625 134.09375 C 291.808594 132.023438 292.929688 132.730469 294.945312 128.316406 C 298.210938 121.164062 295.15625 108.542969 294.167969 105.890625 C 291.277344 107.40625 279.3125 114.023438 276.054688 121.175781 C 274.039062 125.59375 276.550781 128.164062 277.480469 131.5 C 277.992188 133.339844 278.789062 135.710938 277.246094 139.101562 L 274.144531 145.902344 C 274.144531 145.902344 255.613281 183.160156 227.96875 183.402344 C 194.1875 183.707031 194.0625 128.691406 194.0625 128.691406 C 194.0625 124.644531 196.15625 122.394531 197.65625 120.617188 C 200.378906 117.390625 204.472656 115.460938 204.472656 110.1875 C 204.472656 101.867188 195.058594 91.558594 192.3125 88.730469 L 192.3125 88.679688 C 192.257812 88.621094 192.191406 88.546875 192.140625 88.496094 C 192.136719 88.507812 192.125 88.515625 192.117188 88.523438 C 192.109375 88.519531 192.101562 88.507812 192.09375 88.5 C 192.085938 88.507812 192.078125 88.519531 192.070312 88.523438 C 192.058594 88.515625 192.050781 88.507812 192.042969 88.496094 C 191.996094 88.546875 191.925781 88.621094 191.871094 88.679688 L 191.871094 88.730469 C 189.128906 91.558594 179.714844 101.867188 179.714844 110.1875 C 179.714844 115.460938 183.808594 117.390625 186.53125 120.617188 C 188.03125 122.394531 190.121094 124.644531 190.121094 128.691406 C 190.121094 128.691406 190 183.707031 156.21875 183.402344 C 128.574219 183.160156 110.042969 145.902344 110.042969 145.902344 L 106.941406 139.101562 C 105.394531 135.710938 106.195312 133.339844 106.703125 131.5 C 107.636719 128.164062 110.148438 125.59375 108.132812 121.175781 C 104.871094 114.023438 92.90625 107.40625 90.015625 105.890625 C 89.03125 108.542969 85.976562 121.164062 89.242188 128.316406 C 91.253906 132.730469 92.378906 132.023438 95.777344 134.09375 C 97.644531 135.230469 102.261719 136.632812 103.804688 140.019531 L 106.910156 146.824219 C 106.910156 146.824219 123.429688 185.597656 93.324219 195.574219 C 73.007812 202.304688 42.671875 170.859375 42.671875 170.859375 C 40.320312 168.789062 39.78125 167.078125 39.300781 165.761719 C 38.425781 163.375 38.886719 161.230469 35.746094 158.589844 C 30.328125 154.035156 20.585938 151.320312 18.5625 150.84375 C 19.109375 152.777344 23.292969 162.074219 28.261719 166.4375 C 31.328125 169.128906 34.210938 168.226562 36.789062 169.8125 C 65.601562 187.542969 67.890625 249.378906 67.890625 249.378906 L 68.140625 249.378906 C 72.148438 239.933594 126.007812 230.355469 191.90625 230.355469 C 191.9375 230.355469 192.25 230.355469 192.277344 230.355469 C 258.175781 230.355469 312.039062 239.933594 316.042969 249.378906 L 316.296875 249.378906 C 316.296875 249.378906 318.585938 187.542969 347.398438 169.8125 C 349.972656 168.226562 352.859375 169.128906 355.925781 166.4375 C 360.890625 162.074219 365.078125 152.777344 365.625 150.84375 C 363.601562 151.320312 353.859375 154.035156 348.4375 158.589844 " fill-opacity="1" fill-rule="nonzero"/></g></svg>